<svg xmlns="http://www.w3.org/2000/svg" version="1.1" xmlns:xlink="http://www.w3.org/1999/xlink" xmlns:svgjs="http://svgjs.com/svgjs" width="2000" height="800" preserveAspectRatio="none" viewBox="0 0 2000 800"><g mask="url(&quot;#SvgjsMask1450&quot;)" fill="none"><rect width="2000" height="800" x="0" y="0" fill="url(#SvgjsLinearGradient1451)"></rect><path d="M53.26 211.76L118.21 249.26L118.21 324.26L53.26 361.76L-11.69 324.26L-11.69 249.26zM118.21 324.26L183.17 361.76L183.17 436.76L118.21 474.26L53.26 436.76L53.26 361.76zM183.17 -13.24L248.12 24.26L248.12 99.26L183.17 136.76L118.21 99.26L118.21 24.26zM183.17 211.76L248.12 249.26L248.12 324.26L183.17 361.76L118.21 324.26L118.21 249.26zM378.03 99.26L442.98 136.76L442.98 211.76L378.03 249.26L313.07 211.76L313.07 136.76zM313.07 436.76L378.03 474.26L378.03 549.26L313.07 586.76L248.12 549.26L248.12 474.26zM507.94 549.26L572.89 586.76L572.89 661.76L507.94 699.26L442.98 661.76L442.98 586.76zM572.89 -13.24L637.84 24.26L637.84 99.26L572.89 136.76L507.94 99.26L507.94 24.26zM637.84 99.26L702.8 136.76L702.8 211.76L637.84 249.26L572.89 211.76L572.89 136.76zM572.89 211.76L637.84 249.26L637.84 324.26L572.89 361.76L507.94 324.26L507.94 249.26zM572.89 436.76L637.84 474.26L637.84 549.26L572.89 586.76L507.94 549.26L507.94 474.26zM572.89 661.76L637.84 699.26L637.84 774.26L572.89 811.76L507.94 774.26L507.94 699.26zM702.8 -13.24L767.75 24.26L767.75 99.26L702.8 136.76L637.84 99.26L637.84 24.26zM702.8 211.76L767.75 249.26L767.75 324.26L702.8 361.76L637.84 324.26L637.84 249.26zM832.7 436.76L897.66 474.26L897.66 549.26L832.7 586.76L767.75 549.26L767.75 474.26zM962.61 211.76L1027.57 249.26L1027.57 324.26L962.61 361.76L897.66 324.26L897.66 249.26zM1027.57 774.26L1092.52 811.76L1092.52 886.76L1027.57 924.26L962.61 886.76L962.61 811.76zM1157.47 324.26L1222.43 361.76L1222.43 436.76L1157.47 474.26L1092.52 436.76L1092.52 361.76zM1092.52 436.76L1157.47 474.26L1157.47 549.26L1092.52 586.76L1027.57 549.26L1027.57 474.26zM1547.2 324.26L1612.15 361.76L1612.15 436.76L1547.2 474.26L1482.24 436.76L1482.24 361.76zM1547.2 774.26L1612.15 811.76L1612.15 886.76L1547.2 924.26L1482.24 886.76L1482.24 811.76zM1612.15 211.76L1677.1 249.26L1677.1 324.26L1612.15 361.76L1547.2 324.26L1547.2 249.26zM1677.1 774.26L1742.06 811.76L1742.06 886.76L1677.1 924.26L1612.15 886.76L1612.15 811.76zM1742.06 -13.24L1807.01 24.26L1807.01 99.26L1742.06 136.76L1677.1 99.26L1677.1 24.26zM1807.01 549.26L1871.96 586.76L1871.96 661.76L1807.01 699.26L1742.06 661.76L1742.06 586.76zM1742.06 661.76L1807.01 699.26L1807.01 774.26L1742.06 811.76L1677.1 774.26L1677.1 699.26zM1807.01 774.26L1871.96 811.76L1871.96 886.76L1807.01 924.26L1742.06 886.76L1742.06 811.76zM1871.96 211.76L1936.92 249.26L1936.92 324.26L1871.96 361.76L1807.01 324.26L1807.01 249.26zM1936.92 774.26L2001.87 811.76L2001.87 886.76L1936.92 924.26L1871.96 886.76L1871.96 811.76z" stroke="#03305d" stroke-width="2"></path><path d="M45.76 211.76 a7.5 7.5 0 1 0 15 0 a7.5 7.5 0 1 0 -15 0zM110.71 249.26 a7.5 7.5 0 1 0 15 0 a7.5 7.5 0 1 0 -15 0zM110.71 324.26 a7.5 7.5 0 1 0 15 0 a7.5 7.5 0 1 0 -15 0zM45.76 361.76 a7.5 7.5 0 1 0 15 0 a7.5 7.5 0 1 0 -15 0zM-19.19 324.26 a7.5 7.5 0 1 0 15 0 a7.5 7.5 0 1 0 -15 0zM-19.19 249.26 a7.5 7.5 0 1 0 15 0 a7.5 7.5 0 1 0 -15 0zM175.67 361.76 a7.5 7.5 0 1 0 15 0 a7.5 7.5 0 1 0 -15 0zM175.67 436.76 a7.5 7.5 0 1 0 15 0 a7.5 7.5 0 1 0 -15 0zM110.71 474.26 a7.5 7.5 0 1 0 15 0 a7.5 7.5 0 1 0 -15 0zM45.76 436.76 a7.5 7.5 0 1 0 15 0 a7.5 7.5 0 1 0 -15 0zM175.67 -13.24 a7.5 7.5 0 1 0 15 0 a7.5 7.5 0 1 0 -15 0zM240.62 24.26 a7.5 7.5 0 1 0 15 0 a7.5 7.5 0 1 0 -15 0zM240.62 99.26 a7.5 7.5 0 1 0 15 0 a7.5 7.5 0 1 0 -15 0zM175.67 136.76 a7.5 7.5 0 1 0 15 0 a7.5 7.5 0 1 0 -15 0zM110.71 99.26 a7.5 7.5 0 1 0 15 0 a7.5 7.5 0 1 0 -15 0zM110.71 24.26 a7.5 7.5 0 1 0 15 0 a7.5 7.5 0 1 0 -15 0zM175.67 211.76 a7.5 7.5 0 1 0 15 0 a7.5 7.5 0 1 0 -15 0zM240.62 249.26 a7.5 7.5 0 1 0 15 0 a7.5 7.5 0 1 0 -15 0zM240.62 324.26 a7.5 7.5 0 1 0 15 0 a7.5 7.5 0 1 0 -15 0zM370.53 99.26 a7.5 7.5 0 1 0 15 0 a7.5 7.5 0 1 0 -15 0zM435.48 136.76 a7.5 7.5 0 1 0 15 0 a7.5 7.5 0 1 0 -15 0zM435.48 211.76 a7.5 7.5 0 1 0 15 0 a7.5 7.5 0 1 0 -15 0zM370.53 249.26 a7.5 7.5 0 1 0 15 0 a7.5 7.5 0 1 0 -15 0zM305.57 211.76 a7.5 7.5 0 1 0 15 0 a7.5 7.5 0 1 0 -15 0zM305.57 136.76 a7.5 7.5 0 1 0 15 0 a7.5 7.5 0 1 0 -15 0zM305.57 436.76 a7.5 7.5 0 1 0 15 0 a7.5 7.5 0 1 0 -15 0zM370.53 474.26 a7.5 7.5 0 1 0 15 0 a7.5 7.5 0 1 0 -15 0zM370.53 549.26 a7.5 7.5 0 1 0 15 0 a7.5 7.5 0 1 0 -15 0zM305.57 586.76 a7.5 7.5 0 1 0 15 0 a7.5 7.5 0 1 0 -15 0zM240.62 549.26 a7.5 7.5 0 1 0 15 0 a7.5 7.5 0 1 0 -15 0zM240.62 474.26 a7.5 7.5 0 1 0 15 0 a7.5 7.5 0 1 0 -15 0zM500.44 549.26 a7.5 7.5 0 1 0 15 0 a7.5 7.5 0 1 0 -15 0zM565.39 586.76 a7.5 7.5 0 1 0 15 0 a7.5 7.5 0 1 0 -15 0zM565.39 661.76 a7.5 7.5 0 1 0 15 0 a7.5 7.5 0 1 0 -15 0zM500.44 699.26 a7.5 7.5 0 1 0 15 0 a7.5 7.5 0 1 0 -15 0zM435.48 661.76 a7.5 7.5 0 1 0 15 0 a7.5 7.5 0 1 0 -15 0zM435.48 586.76 a7.5 7.5 0 1 0 15 0 a7.5 7.5 0 1 0 -15 0zM565.39 -13.24 a7.5 7.5 0 1 0 15 0 a7.5 7.5 0 1 0 -15 0zM630.34 24.26 a7.5 7.5 0 1 0 15 0 a7.5 7.5 0 1 0 -15 0zM630.34 99.26 a7.5 7.5 0 1 0 15 0 a7.5 7.5 0 1 0 -15 0zM565.39 136.76 a7.5 7.5 0 1 0 15 0 a7.5 7.5 0 1 0 -15 0zM500.44 99.26 a7.5 7.5 0 1 0 15 0 a7.5 7.5 0 1 0 -15 0zM500.44 24.26 a7.5 7.5 0 1 0 15 0 a7.5 7.5 0 1 0 -15 0zM695.3 136.76 a7.5 7.5 0 1 0 15 0 a7.5 7.5 0 1 0 -15 0zM695.3 211.76 a7.5 7.5 0 1 0 15 0 a7.5 7.5 0 1 0 -15 0zM630.34 249.26 a7.5 7.5 0 1 0 15 0 a7.5 7.5 0 1 0 -15 0zM565.39 211.76 a7.5 7.5 0 1 0 15 0 a7.5 7.5 0 1 0 -15 0zM630.34 324.26 a7.5 7.5 0 1 0 15 0 a7.5 7.5 0 1 0 -15 0zM565.39 361.76 a7.5 7.5 0 1 0 15 0 a7.5 7.5 0 1 0 -15 0zM500.44 324.26 a7.5 7.5 0 1 0 15 0 a7.5 7.5 0 1 0 -15 0zM500.44 249.26 a7.5 7.5 0 1 0 15 0 a7.5 7.5 0 1 0 -15 0zM565.39 436.76 a7.5 7.5 0 1 0 15 0 a7.5 7.5 0 1 0 -15 0zM630.34 474.26 a7.5 7.5 0 1 0 15 0 a7.5 7.5 0 1 0 -15 0zM630.34 549.26 a7.5 7.5 0 1 0 15 0 a7.5 7.5 0 1 0 -15 0zM500.44 474.26 a7.5 7.5 0 1 0 15 0 a7.5 7.5 0 1 0 -15 0zM630.34 699.26 a7.5 7.5 0 1 0 15 0 a7.5 7.5 0 1 0 -15 0zM630.34 774.26 a7.5 7.5 0 1 0 15 0 a7.5 7.5 0 1 0 -15 0zM565.39 811.76 a7.5 7.5 0 1 0 15 0 a7.5 7.5 0 1 0 -15 0zM500.44 774.26 a7.5 7.5 0 1 0 15 0 a7.5 7.5 0 1 0 -15 0zM695.3 -13.24 a7.5 7.5 0 1 0 15 0 a7.5 7.5 0 1 0 -15 0zM760.25 24.26 a7.5 7.5 0 1 0 15 0 a7.5 7.5 0 1 0 -15 0zM760.25 99.26 a7.5 7.5 0 1 0 15 0 a7.5 7.5 0 1 0 -15 0zM760.25 249.26 a7.5 7.5 0 1 0 15 0 a7.5 7.5 0 1 0 -15 0zM760.25 324.26 a7.5 7.5 0 1 0 15 0 a7.5 7.5 0 1 0 -15 0zM695.3 361.76 a7.5 7.5 0 1 0 15 0 a7.5 7.5 0 1 0 -15 0zM825.2 436.76 a7.5 7.5 0 1 0 15 0 a7.5 7.5 0 1 0 -15 0zM890.16 474.26 a7.5 7.5 0 1 0 15 0 a7.5 7.5 0 1 0 -15 0zM890.16 549.26 a7.5 7.5 0 1 0 15 0 a7.5 7.5 0 1 0 -15 0zM825.2 586.76 a7.5 7.5 0 1 0 15 0 a7.5 7.5 0 1 0 -15 0zM760.25 549.26 a7.5 7.5 0 1 0 15 0 a7.5 7.5 0 1 0 -15 0zM760.25 474.26 a7.5 7.5 0 1 0 15 0 a7.5 7.5 0 1 0 -15 0zM955.11 211.76 a7.5 7.5 0 1 0 15 0 a7.5 7.5 0 1 0 -15 0zM1020.07 249.26 a7.5 7.5 0 1 0 15 0 a7.5 7.5 0 1 0 -15 0zM1020.07 324.26 a7.5 7.5 0 1 0 15 0 a7.5 7.5 0 1 0 -15 0zM955.11 361.76 a7.5 7.5 0 1 0 15 0 a7.5 7.5 0 1 0 -15 0zM890.16 324.26 a7.5 7.5 0 1 0 15 0 a7.5 7.5 0 1 0 -15 0zM890.16 249.26 a7.5 7.5 0 1 0 15 0 a7.5 7.5 0 1 0 -15 0zM1020.07 774.26 a7.5 7.5 0 1 0 15 0 a7.5 7.5 0 1 0 -15 0zM1085.02 811.76 a7.5 7.5 0 1 0 15 0 a7.5 7.5 0 1 0 -15 0zM1085.02 886.76 a7.5 7.5 0 1 0 15 0 a7.5 7.5 0 1 0 -15 0zM1020.07 924.26 a7.5 7.5 0 1 0 15 0 a7.5 7.5 0 1 0 -15 0zM955.11 886.76 a7.5 7.5 0 1 0 15 0 a7.5 7.5 0 1 0 -15 0zM955.11 811.76 a7.5 7.5 0 1 0 15 0 a7.5 7.5 0 1 0 -15 0zM1149.97 324.26 a7.5 7.5 0 1 0 15 0 a7.5 7.5 0 1 0 -15 0zM1214.93 361.76 a7.5 7.5 0 1 0 15 0 a7.5 7.5 0 1 0 -15 0zM1214.93 436.76 a7.5 7.5 0 1 0 15 0 a7.5 7.5 0 1 0 -15 0zM1149.97 474.26 a7.5 7.5 0 1 0 15 0 a7.5 7.5 0 1 0 -15 0zM1085.02 436.76 a7.5 7.5 0 1 0 15 0 a7.5 7.5 0 1 0 -15 0zM1085.02 361.76 a7.5 7.5 0 1 0 15 0 a7.5 7.5 0 1 0 -15 0zM1149.97 549.26 a7.5 7.5 0 1 0 15 0 a7.5 7.5 0 1 0 -15 0zM1085.02 586.76 a7.5 7.5 0 1 0 15 0 a7.5 7.5 0 1 0 -15 0zM1020.07 549.26 a7.5 7.5 0 1 0 15 0 a7.5 7.5 0 1 0 -15 0zM1020.07 474.26 a7.5 7.5 0 1 0 15 0 a7.5 7.5 0 1 0 -15 0zM1539.7 324.26 a7.5 7.5 0 1 0 15 0 a7.5 7.5 0 1 0 -15 0zM1604.65 361.76 a7.5 7.5 0 1 0 15 0 a7.5 7.5 0 1 0 -15 0zM1604.65 436.76 a7.5 7.5 0 1 0 15 0 a7.5 7.5 0 1 0 -15 0zM1539.7 474.26 a7.5 7.5 0 1 0 15 0 a7.5 7.5 0 1 0 -15 0zM1474.74 436.76 a7.5 7.5 0 1 0 15 0 a7.5 7.5 0 1 0 -15 0zM1474.74 361.76 a7.5 7.5 0 1 0 15 0 a7.5 7.5 0 1 0 -15 0zM1539.7 774.26 a7.5 7.5 0 1 0 15 0 a7.5 7.5 0 1 0 -15 0zM1604.65 811.76 a7.5 7.5 0 1 0 15 0 a7.5 7.5 0 1 0 -15 0zM1604.65 886.76 a7.5 7.5 0 1 0 15 0 a7.5 7.5 0 1 0 -15 0zM1539.7 924.26 a7.5 7.5 0 1 0 15 0 a7.5 7.5 0 1 0 -15 0zM1474.74 886.76 a7.5 7.5 0 1 0 15 0 a7.5 7.5 0 1 0 -15 0zM1474.74 811.76 a7.5 7.5 0 1 0 15 0 a7.5 7.5 0 1 0 -15 0zM1604.65 211.76 a7.5 7.5 0 1 0 15 0 a7.5 7.5 0 1 0 -15 0zM1669.6 249.26 a7.5 7.5 0 1 0 15 0 a7.5 7.5 0 1 0 -15 0zM1669.6 324.26 a7.5 7.5 0 1 0 15 0 a7.5 7.5 0 1 0 -15 0zM1539.7 249.26 a7.5 7.5 0 1 0 15 0 a7.5 7.5 0 1 0 -15 0zM1669.6 774.26 a7.5 7.5 0 1 0 15 0 a7.5 7.5 0 1 0 -15 0zM1734.56 811.76 a7.5 7.5 0 1 0 15 0 a7.5 7.5 0 1 0 -15 0zM1734.56 886.76 a7.5 7.5 0 1 0 15 0 a7.5 7.5 0 1 0 -15 0zM1669.6 924.26 a7.5 7.5 0 1 0 15 0 a7.5 7.5 0 1 0 -15 0zM1734.56 -13.24 a7.5 7.5 0 1 0 15 0 a7.5 7.5 0 1 0 -15 0zM1799.51 24.26 a7.5 7.5 0 1 0 15 0 a7.5 7.5 0 1 0 -15 0zM1799.51 99.26 a7.5 7.5 0 1 0 15 0 a7.5 7.5 0 1 0 -15 0zM1734.56 136.76 a7.5 7.5 0 1 0 15 0 a7.5 7.5 0 1 0 -15 0zM1669.6 99.26 a7.5 7.5 0 1 0 15 0 a7.5 7.5 0 1 0 -15 0zM1669.6 24.26 a7.5 7.5 0 1 0 15 0 a7.5 7.5 0 1 0 -15 0zM1799.51 549.26 a7.5 7.5 0 1 0 15 0 a7.5 7.5 0 1 0 -15 0zM1864.46 586.76 a7.5 7.5 0 1 0 15 0 a7.5 7.5 0 1 0 -15 0zM1864.46 661.76 a7.5 7.5 0 1 0 15 0 a7.5 7.5 0 1 0 -15 0zM1799.51 699.26 a7.5 7.5 0 1 0 15 0 a7.5 7.5 0 1 0 -15 0zM1734.56 661.76 a7.5 7.5 0 1 0 15 0 a7.5 7.5 0 1 0 -15 0zM1734.56 586.76 a7.5 7.5 0 1 0 15 0 a7.5 7.5 0 1 0 -15 0zM1799.51 774.26 a7.5 7.5 0 1 0 15 0 a7.5 7.5 0 1 0 -15 0zM1669.6 699.26 a7.5 7.5 0 1 0 15 0 a7.5 7.5 0 1 0 -15 0zM1864.46 811.76 a7.5 7.5 0 1 0 15 0 a7.5 7.5 0 1 0 -15 0zM1864.46 886.76 a7.5 7.5 0 1 0 15 0 a7.5 7.5 0 1 0 -15 0zM1799.51 924.26 a7.5 7.5 0 1 0 15 0 a7.5 7.5 0 1 0 -15 0zM1864.46 211.76 a7.5 7.5 0 1 0 15 0 a7.5 7.5 0 1 0 -15 0zM1929.42 249.26 a7.5 7.5 0 1 0 15 0 a7.5 7.5 0 1 0 -15 0zM1929.42 324.26 a7.5 7.5 0 1 0 15 0 a7.5 7.5 0 1 0 -15 0zM1864.46 361.76 a7.5 7.5 0 1 0 15 0 a7.5 7.5 0 1 0 -15 0zM1799.51 324.26 a7.5 7.5 0 1 0 15 0 a7.5 7.5 0 1 0 -15 0zM1799.51 249.26 a7.5 7.5 0 1 0 15 0 a7.5 7.5 0 1 0 -15 0zM1929.42 774.26 a7.5 7.5 0 1 0 15 0 a7.5 7.5 0 1 0 -15 0zM1994.37 811.76 a7.5 7.5 0 1 0 15 0 a7.5 7.5 0 1 0 -15 0zM1994.37 886.76 a7.5 7.5 0 1 0 15 0 a7.5 7.5 0 1 0 -15 0zM1929.42 924.26 a7.5 7.5 0 1 0 15 0 a7.5 7.5 0 1 0 -15 0z" fill="#03305d"></path><path d="M14.58 -6.6L45.76 11.4L45.76 47.4L14.58 65.4L-16.6 47.4L-16.6 11.4zM45.76 47.4L76.94 65.4L76.94 101.4L45.76 119.4L14.58 101.4L14.58 65.4zM45.76 155.4L76.94 173.4L76.94 209.4L45.76 227.4L14.58 209.4L14.58 173.4zM45.76 263.4L76.94 281.4L76.94 317.4L45.76 335.4L14.58 317.4L14.58 281.4zM14.58 317.4L45.76 335.4L45.76 371.4L14.58 389.4L-16.6 371.4L-16.6 335.4zM45.76 479.4L76.94 497.4L76.94 533.4L45.76 551.4L14.58 533.4L14.58 497.4zM14.58 533.4L45.76 551.4L45.76 587.4L14.58 605.4L-16.6 587.4L-16.6 551.4zM45.76 587.4L76.94 605.4L76.94 641.4L45.76 659.4L14.58 641.4L14.58 605.4zM14.58 641.4L45.76 659.4L45.76 695.4L14.58 713.4L-16.6 695.4L-16.6 659.4zM45.76 695.4L76.94 713.4L76.94 749.4L45.76 767.4L14.58 749.4L14.58 713.4zM45.76 803.4L76.94 821.4L76.94 857.4L45.76 875.4L14.58 857.4L14.58 821.4zM108.11 155.4L139.29 173.4L139.29 209.4L108.11 227.4L76.94 209.4L76.94 173.4zM76.94 317.4L108.11 335.4L108.11 371.4L76.94 389.4L45.76 371.4L45.76 335.4zM108.11 371.4L139.29 389.4L139.29 425.4L108.11 443.4L76.94 425.4L76.94 389.4zM76.94 425.4L108.11 443.4L108.11 479.4L76.94 497.4L45.76 479.4L45.76 443.4zM108.11 479.4L139.29 497.4L139.29 533.4L108.11 551.4L76.94 533.4L76.94 497.4zM76.94 749.4L108.11 767.4L108.11 803.4L76.94 821.4L45.76 803.4L45.76 767.4zM108.11 803.4L139.29 821.4L139.29 857.4L108.11 875.4L76.94 857.4L76.94 821.4zM170.47 47.4L201.65 65.4L201.65 101.4L170.47 119.4L139.29 101.4L139.29 65.4zM139.29 209.4L170.47 227.4L170.47 263.4L139.29 281.4L108.11 263.4L108.11 227.4zM170.47 371.4L201.65 389.4L201.65 425.4L170.47 443.4L139.29 425.4L139.29 389.4zM139.29 425.4L170.47 443.4L170.47 479.4L139.29 497.4L108.11 479.4L108.11 443.4zM139.29 533.4L170.47 551.4L170.47 587.4L139.29 605.4L108.11 587.4L108.11 551.4zM139.29 641.4L170.47 659.4L170.47 695.4L139.29 713.4L108.11 695.4L108.11 659.4zM139.29 749.4L170.47 767.4L170.47 803.4L139.29 821.4L108.11 803.4L108.11 767.4zM232.82 155.4L264 173.4L264 209.4L232.82 227.4L201.65 209.4L201.65 173.4zM232.82 263.4L264 281.4L264 317.4L232.82 335.4L201.65 317.4L201.65 281.4zM201.65 317.4L232.82 335.4L232.82 371.4L201.65 389.4L170.47 371.4L170.47 335.4zM232.82 479.4L264 497.4L264 533.4L232.82 551.4L201.65 533.4L201.65 497.4zM201.65 533.4L232.82 551.4L232.82 587.4L201.65 605.4L170.47 587.4L170.47 551.4zM201.65 641.4L232.82 659.4L232.82 695.4L201.65 713.4L170.47 695.4L170.47 659.4zM232.82 695.4L264 713.4L264 749.4L232.82 767.4L201.65 749.4L201.65 713.4zM232.82 803.4L264 821.4L264 857.4L232.82 875.4L201.65 857.4L201.65 821.4zM264 -6.6L295.18 11.4L295.18 47.4L264 65.4L232.82 47.4L232.82 11.4zM295.18 47.4L326.36 65.4L326.36 101.4L295.18 119.4L264 101.4L264 65.4zM264 101.4L295.18 119.4L295.18 155.4L264 173.4L232.82 155.4L232.82 119.4zM295.18 155.4L326.36 173.4L326.36 209.4L295.18 227.4L264 209.4L264 173.4zM264 209.4L295.18 227.4L295.18 263.4L264 281.4L232.82 263.4L232.82 227.4zM264 317.4L295.18 335.4L295.18 371.4L264 389.4L232.82 371.4L232.82 335.4zM264 425.4L295.18 443.4L295.18 479.4L264 497.4L232.82 479.4L232.82 443.4zM295.18 479.4L326.36 497.4L326.36 533.4L295.18 551.4L264 533.4L264 497.4zM264 533.4L295.18 551.4L295.18 587.4L264 605.4L232.82 587.4L232.82 551.4zM295.18 587.4L326.36 605.4L326.36 641.4L295.18 659.4L264 641.4L264 605.4zM295.18 695.4L326.36 713.4L326.36 749.4L295.18 767.4L264 749.4L264 713.4zM264 749.4L295.18 767.4L295.18 803.4L264 821.4L232.82 803.4L232.82 767.4zM326.36 -6.6L357.54 11.4L357.54 47.4L326.36 65.4L295.18 47.4L295.18 11.4zM326.36 101.4L357.54 119.4L357.54 155.4L326.36 173.4L295.18 155.4L295.18 119.4zM326.36 317.4L357.54 335.4L357.54 371.4L326.36 389.4L295.18 371.4L295.18 335.4zM357.54 371.4L388.71 389.4L388.71 425.4L357.54 443.4L326.36 425.4L326.36 389.4zM326.36 749.4L357.54 767.4L357.54 803.4L326.36 821.4L295.18 803.4L295.18 767.4zM357.54 803.4L388.71 821.4L388.71 857.4L357.54 875.4L326.36 857.4L326.36 821.4zM388.71 -6.6L419.89 11.4L419.89 47.4L388.71 65.4L357.54 47.4L357.54 11.4zM419.89 155.4L451.07 173.4L451.07 209.4L419.89 227.4L388.71 209.4L388.71 173.4zM419.89 263.4L451.07 281.4L451.07 317.4L419.89 335.4L388.71 317.4L388.71 281.4zM419.89 479.4L451.07 497.4L451.07 533.4L419.89 551.4L388.71 533.4L388.71 497.4zM419.89 695.4L451.07 713.4L451.07 749.4L419.89 767.4L388.71 749.4L388.71 713.4zM419.89 803.4L451.07 821.4L451.07 857.4L419.89 875.4L388.71 857.4L388.71 821.4zM451.07 -6.6L482.25 11.4L482.25 47.4L451.07 65.4L419.89 47.4L419.89 11.4zM482.25 155.4L513.42 173.4L513.42 209.4L482.25 227.4L451.07 209.4L451.07 173.4zM451.07 317.4L482.25 335.4L482.25 371.4L451.07 389.4L419.89 371.4L419.89 335.4zM482.25 371.4L513.42 389.4L513.42 425.4L482.25 443.4L451.07 425.4L451.07 389.4zM451.07 425.4L482.25 443.4L482.25 479.4L451.07 497.4L419.89 479.4L419.89 443.4zM482.25 695.4L513.42 713.4L513.42 749.4L482.25 767.4L451.07 749.4L451.07 713.4zM451.07 749.4L482.25 767.4L482.25 803.4L451.07 821.4L419.89 803.4L419.89 767.4zM513.42 101.4L544.6 119.4L544.6 155.4L513.42 173.4L482.25 155.4L482.25 119.4zM513.42 209.4L544.6 227.4L544.6 263.4L513.42 281.4L482.25 263.4L482.25 227.4zM544.6 263.4L575.78 281.4L575.78 317.4L544.6 335.4L513.42 317.4L513.42 281.4zM513.42 317.4L544.6 335.4L544.6 371.4L513.42 389.4L482.25 371.4L482.25 335.4zM544.6 371.4L575.78 389.4L575.78 425.4L544.6 443.4L513.42 425.4L513.42 389.4zM544.6 479.4L575.78 497.4L575.78 533.4L544.6 551.4L513.42 533.4L513.42 497.4zM544.6 587.4L575.78 605.4L575.78 641.4L544.6 659.4L513.42 641.4L513.42 605.4zM606.96 47.4L638.14 65.4L638.14 101.4L606.96 119.4L575.78 101.4L575.78 65.4zM575.78 425.4L606.96 443.4L606.96 479.4L575.78 497.4L544.6 479.4L544.6 443.4zM575.78 533.4L606.96 551.4L606.96 587.4L575.78 605.4L544.6 587.4L544.6 551.4zM606.96 587.4L638.14 605.4L638.14 641.4L606.96 659.4L575.78 641.4L575.78 605.4zM575.78 641.4L606.96 659.4L606.96 695.4L575.78 713.4L544.6 695.4L544.6 659.4zM575.78 749.4L606.96 767.4L606.96 803.4L575.78 821.4L544.6 803.4L544.6 767.4zM669.31 47.4L700.49 65.4L700.49 101.4L669.31 119.4L638.14 101.4L638.14 65.4zM638.14 101.4L669.31 119.4L669.31 155.4L638.14 173.4L606.96 155.4L606.96 119.4zM638.14 209.4L669.31 227.4L669.31 263.4L638.14 281.4L606.96 263.4L606.96 227.4zM669.31 263.4L700.49 281.4L700.49 317.4L669.31 335.4L638.14 317.4L638.14 281.4zM638.14 317.4L669.31 335.4L669.31 371.4L638.14 389.4L606.96 371.4L606.96 335.4zM669.31 371.4L700.49 389.4L700.49 425.4L669.31 443.4L638.14 425.4L638.14 389.4zM638.14 425.4L669.31 443.4L669.31 479.4L638.14 497.4L606.96 479.4L606.96 443.4zM669.31 587.4L700.49 605.4L700.49 641.4L669.31 659.4L638.14 641.4L638.14 605.4zM669.31 695.4L700.49 713.4L700.49 749.4L669.31 767.4L638.14 749.4L638.14 713.4zM700.49 -6.6L731.67 11.4L731.67 47.4L700.49 65.4L669.31 47.4L669.31 11.4zM700.49 101.4L731.67 119.4L731.67 155.4L700.49 173.4L669.31 155.4L669.31 119.4zM731.67 371.4L762.85 389.4L762.85 425.4L731.67 443.4L700.49 425.4L700.49 389.4zM700.49 425.4L731.67 443.4L731.67 479.4L700.49 497.4L669.31 479.4L669.31 443.4zM731.67 587.4L762.85 605.4L762.85 641.4L731.67 659.4L700.49 641.4L700.49 605.4zM700.49 749.4L731.67 767.4L731.67 803.4L700.49 821.4L669.31 803.4L669.31 767.4zM794.03 47.4L825.2 65.4L825.2 101.4L794.03 119.4L762.85 101.4L762.85 65.4zM762.85 209.4L794.03 227.4L794.03 263.4L762.85 281.4L731.67 263.4L731.67 227.4zM762.85 425.4L794.03 443.4L794.03 479.4L762.85 497.4L731.67 479.4L731.67 443.4zM794.03 479.4L825.2 497.4L825.2 533.4L794.03 551.4L762.85 533.4L762.85 497.4zM762.85 533.4L794.03 551.4L794.03 587.4L762.85 605.4L731.67 587.4L731.67 551.4zM825.2 -6.6L856.38 11.4L856.38 47.4L825.2 65.4L794.02 47.4L794.02 11.4zM856.38 47.4L887.56 65.4L887.56 101.4L856.38 119.4L825.2 101.4L825.2 65.4zM856.38 263.4L887.56 281.4L887.56 317.4L856.38 335.4L825.2 317.4L825.2 281.4zM856.38 479.4L887.56 497.4L887.56 533.4L856.38 551.4L825.2 533.4L825.2 497.4zM825.2 533.4L856.38 551.4L856.38 587.4L825.2 605.4L794.02 587.4L794.02 551.4zM856.38 587.4L887.56 605.4L887.56 641.4L856.38 659.4L825.2 641.4L825.2 605.4zM825.2 641.4L856.38 659.4L856.38 695.4L825.2 713.4L794.02 695.4L794.02 659.4zM825.2 749.4L856.38 767.4L856.38 803.4L825.2 821.4L794.02 803.4L794.02 767.4zM856.38 803.4L887.56 821.4L887.56 857.4L856.38 875.4L825.2 857.4L825.2 821.4zM887.56 101.4L918.74 119.4L918.74 155.4L887.56 173.4L856.38 155.4L856.38 119.4zM918.74 371.4L949.91 389.4L949.91 425.4L918.74 443.4L887.56 425.4L887.56 389.4zM887.56 533.4L918.74 551.4L918.74 587.4L887.56 605.4L856.38 587.4L856.38 551.4zM918.74 587.4L949.91 605.4L949.91 641.4L918.74 659.4L887.56 641.4L887.56 605.4zM887.56 641.4L918.74 659.4L918.74 695.4L887.56 713.4L856.38 695.4L856.38 659.4zM918.74 695.4L949.91 713.4L949.91 749.4L918.74 767.4L887.56 749.4L887.56 713.4zM981.09 47.4L1012.27 65.4L1012.27 101.4L981.09 119.4L949.91 101.4L949.91 65.4zM949.91 101.4L981.09 119.4L981.09 155.4L949.91 173.4L918.74 155.4L918.74 119.4zM949.91 209.4L981.09 227.4L981.09 263.4L949.91 281.4L918.74 263.4L918.74 227.4zM981.09 371.4L1012.27 389.4L1012.27 425.4L981.09 443.4L949.91 425.4L949.91 389.4zM949.91 425.4L981.09 443.4L981.09 479.4L949.91 497.4L918.74 479.4L918.74 443.4zM949.91 533.4L981.09 551.4L981.09 587.4L949.91 605.4L918.74 587.4L918.74 551.4zM981.09 587.4L1012.27 605.4L1012.27 641.4L981.09 659.4L949.91 641.4L949.91 605.4zM981.09 803.4L1012.27 821.4L1012.27 857.4L981.09 875.4L949.91 857.4L949.91 821.4zM1012.27 -6.6L1043.45 11.4L1043.45 47.4L1012.27 65.4L981.09 47.4L981.09 11.4zM1043.45 47.4L1074.63 65.4L1074.63 101.4L1043.45 119.4L1012.27 101.4L1012.27 65.4zM1012.27 317.4L1043.45 335.4L1043.45 371.4L1012.27 389.4L981.09 371.4L981.09 335.4zM1074.63 -6.6L1105.8 11.4L1105.8 47.4L1074.63 65.4L1043.45 47.4L1043.45 11.4zM1074.63 317.4L1105.8 335.4L1105.8 371.4L1074.63 389.4L1043.45 371.4L1043.45 335.4zM1105.8 371.4L1136.98 389.4L1136.98 425.4L1105.8 443.4L1074.63 425.4L1074.63 389.4zM1074.63 425.4L1105.8 443.4L1105.8 479.4L1074.63 497.4L1043.45 479.4L1043.45 443.4zM1074.63 533.4L1105.8 551.4L1105.8 587.4L1074.63 605.4L1043.45 587.4L1043.45 551.4zM1074.63 641.4L1105.8 659.4L1105.8 695.4L1074.63 713.4L1043.45 695.4L1043.45 659.4zM1105.8 695.4L1136.98 713.4L1136.98 749.4L1105.8 767.4L1074.63 749.4L1074.63 713.4zM1105.8 803.4L1136.98 821.4L1136.98 857.4L1105.8 875.4L1074.63 857.4L1074.63 821.4zM1136.98 -6.6L1168.16 11.4L1168.16 47.4L1136.98 65.4L1105.8 47.4L1105.8 11.4zM1168.16 47.4L1199.34 65.4L1199.34 101.4L1168.16 119.4L1136.98 101.4L1136.98 65.4zM1136.98 101.4L1168.16 119.4L1168.16 155.4L1136.98 173.4L1105.8 155.4L1105.8 119.4zM1168.16 263.4L1199.34 281.4L1199.34 317.4L1168.16 335.4L1136.98 317.4L1136.98 281.4zM1136.98 641.4L1168.16 659.4L1168.16 695.4L1136.98 713.4L1105.8 695.4L1105.8 659.4zM1230.51 47.4L1261.69 65.4L1261.69 101.4L1230.51 119.4L1199.34 101.4L1199.34 65.4zM1230.51 263.4L1261.69 281.4L1261.69 317.4L1230.51 335.4L1199.34 317.4L1199.34 281.4zM1230.51 371.4L1261.69 389.4L1261.69 425.4L1230.51 443.4L1199.34 425.4L1199.34 389.4zM1199.34 425.4L1230.51 443.4L1230.51 479.4L1199.34 497.4L1168.16 479.4L1168.16 443.4zM1230.51 479.4L1261.69 497.4L1261.69 533.4L1230.51 551.4L1199.34 533.4L1199.34 497.4zM1199.34 533.4L1230.51 551.4L1230.51 587.4L1199.34 605.4L1168.16 587.4L1168.16 551.4zM1261.69 101.4L1292.87 119.4L1292.87 155.4L1261.69 173.4L1230.51 155.4L1230.51 119.4zM1292.87 155.4L1324.05 173.4L1324.05 209.4L1292.87 227.4L1261.69 209.4L1261.69 173.4zM1261.69 533.4L1292.87 551.4L1292.87 587.4L1261.69 605.4L1230.51 587.4L1230.51 551.4zM1292.87 587.4L1324.05 605.4L1324.05 641.4L1292.87 659.4L1261.69 641.4L1261.69 605.4zM1261.69 749.4L1292.87 767.4L1292.87 803.4L1261.69 821.4L1230.51 803.4L1230.51 767.4zM1355.23 47.4L1386.4 65.4L1386.4 101.4L1355.23 119.4L1324.05 101.4L1324.05 65.4zM1324.05 101.4L1355.23 119.4L1355.23 155.4L1324.05 173.4L1292.87 155.4L1292.87 119.4zM1355.23 155.4L1386.4 173.4L1386.4 209.4L1355.23 227.4L1324.05 209.4L1324.05 173.4zM1324.05 209.4L1355.23 227.4L1355.23 263.4L1324.05 281.4L1292.87 263.4L1292.87 227.4zM1355.23 587.4L1386.4 605.4L1386.4 641.4L1355.23 659.4L1324.05 641.4L1324.05 605.4zM1324.05 749.4L1355.23 767.4L1355.23 803.4L1324.05 821.4L1292.87 803.4L1292.87 767.4zM1386.4 -6.6L1417.58 11.4L1417.58 47.4L1386.4 65.4L1355.23 47.4L1355.23 11.4zM1386.4 101.4L1417.58 119.4L1417.58 155.4L1386.4 173.4L1355.23 155.4L1355.23 119.4zM1417.58 155.4L1448.76 173.4L1448.76 209.4L1417.58 227.4L1386.4 209.4L1386.4 173.4zM1386.4 209.4L1417.58 227.4L1417.58 263.4L1386.4 281.4L1355.23 263.4L1355.23 227.4zM1417.58 263.4L1448.76 281.4L1448.76 317.4L1417.58 335.4L1386.4 317.4L1386.4 281.4zM1386.4 317.4L1417.58 335.4L1417.58 371.4L1386.4 389.4L1355.23 371.4L1355.23 335.4zM1417.58 371.4L1448.76 389.4L1448.76 425.4L1417.58 443.4L1386.4 425.4L1386.4 389.4zM1417.58 479.4L1448.76 497.4L1448.76 533.4L1417.58 551.4L1386.4 533.4L1386.4 497.4zM1386.4 533.4L1417.58 551.4L1417.58 587.4L1386.4 605.4L1355.23 587.4L1355.23 551.4zM1386.4 641.4L1417.58 659.4L1417.58 695.4L1386.4 713.4L1355.23 695.4L1355.23 659.4zM1386.4 749.4L1417.58 767.4L1417.58 803.4L1386.4 821.4L1355.23 803.4L1355.23 767.4zM1448.76 -6.6L1479.94 11.4L1479.94 47.4L1448.76 65.4L1417.58 47.4L1417.58 11.4zM1479.94 47.4L1511.11 65.4L1511.11 101.4L1479.94 119.4L1448.76 101.4L1448.76 65.4zM1448.76 317.4L1479.94 335.4L1479.94 371.4L1448.76 389.4L1417.58 371.4L1417.58 335.4zM1448.76 425.4L1479.94 443.4L1479.94 479.4L1448.76 497.4L1417.58 479.4L1417.58 443.4zM1479.94 587.4L1511.11 605.4L1511.11 641.4L1479.94 659.4L1448.76 641.4L1448.76 605.4zM1448.76 749.4L1479.94 767.4L1479.94 803.4L1448.76 821.4L1417.58 803.4L1417.58 767.4zM1479.94 803.4L1511.11 821.4L1511.11 857.4L1479.94 875.4L1448.76 857.4L1448.76 821.4zM1542.29 263.4L1573.47 281.4L1573.47 317.4L1542.29 335.4L1511.11 317.4L1511.11 281.4zM1511.11 317.4L1542.29 335.4L1542.29 371.4L1511.11 389.4L1479.94 371.4L1479.94 335.4zM1542.29 371.4L1573.47 389.4L1573.47 425.4L1542.29 443.4L1511.11 425.4L1511.11 389.4zM1542.29 587.4L1573.47 605.4L1573.47 641.4L1542.29 659.4L1511.11 641.4L1511.11 605.4zM1542.29 695.4L1573.47 713.4L1573.47 749.4L1542.29 767.4L1511.11 749.4L1511.11 713.4zM1573.47 101.4L1604.65 119.4L1604.65 155.4L1573.47 173.4L1542.29 155.4L1542.29 119.4zM1604.65 263.4L1635.83 281.4L1635.83 317.4L1604.65 335.4L1573.47 317.4L1573.47 281.4zM1573.47 425.4L1604.65 443.4L1604.65 479.4L1573.47 497.4L1542.29 479.4L1542.29 443.4zM1573.47 533.4L1604.65 551.4L1604.65 587.4L1573.47 605.4L1542.29 587.4L1542.29 551.4zM1604.65 695.4L1635.83 713.4L1635.83 749.4L1604.65 767.4L1573.47 749.4L1573.47 713.4zM1573.47 749.4L1604.65 767.4L1604.65 803.4L1573.47 821.4L1542.29 803.4L1542.29 767.4zM1635.83 -6.6L1667 11.4L1667 47.4L1635.83 65.4L1604.65 47.4L1604.65 11.4zM1667 47.4L1698.18 65.4L1698.18 101.4L1667 119.4L1635.83 101.4L1635.83 65.4zM1667 263.4L1698.18 281.4L1698.18 317.4L1667 335.4L1635.83 317.4L1635.83 281.4zM1635.83 317.4L1667 335.4L1667 371.4L1635.83 389.4L1604.65 371.4L1604.65 335.4zM1635.83 533.4L1667 551.4L1667 587.4L1635.83 605.4L1604.65 587.4L1604.65 551.4zM1635.83 749.4L1667 767.4L1667 803.4L1635.83 821.4L1604.65 803.4L1604.65 767.4zM1698.18 -6.6L1729.36 11.4L1729.36 47.4L1698.18 65.4L1667 47.4L1667 11.4zM1729.36 47.4L1760.54 65.4L1760.54 101.4L1729.36 119.4L1698.18 101.4L1698.18 65.4zM1729.36 263.4L1760.54 281.4L1760.54 317.4L1729.36 335.4L1698.18 317.4L1698.18 281.4zM1698.18 425.4L1729.36 443.4L1729.36 479.4L1698.18 497.4L1667 479.4L1667 443.4zM1698.18 533.4L1729.36 551.4L1729.36 587.4L1698.18 605.4L1667 587.4L1667 551.4zM1729.36 587.4L1760.54 605.4L1760.54 641.4L1729.36 659.4L1698.18 641.4L1698.18 605.4zM1729.36 803.4L1760.54 821.4L1760.54 857.4L1729.36 875.4L1698.18 857.4L1698.18 821.4zM1791.71 47.4L1822.89 65.4L1822.89 101.4L1791.71 119.4L1760.54 101.4L1760.54 65.4zM1760.54 209.4L1791.71 227.4L1791.71 263.4L1760.54 281.4L1729.36 263.4L1729.36 227.4zM1791.71 263.4L1822.89 281.4L1822.89 317.4L1791.71 335.4L1760.54 317.4L1760.54 281.4zM1791.71 371.4L1822.89 389.4L1822.89 425.4L1791.71 443.4L1760.54 425.4L1760.54 389.4zM1791.71 479.4L1822.89 497.4L1822.89 533.4L1791.71 551.4L1760.54 533.4L1760.54 497.4zM1791.71 587.4L1822.89 605.4L1822.89 641.4L1791.71 659.4L1760.54 641.4L1760.54 605.4zM1760.54 749.4L1791.71 767.4L1791.71 803.4L1760.54 821.4L1729.36 803.4L1729.36 767.4zM1791.71 803.4L1822.89 821.4L1822.89 857.4L1791.71 875.4L1760.54 857.4L1760.54 821.4zM1822.89 -6.6L1854.07 11.4L1854.07 47.4L1822.89 65.4L1791.71 47.4L1791.71 11.4zM1854.07 47.4L1885.25 65.4L1885.25 101.4L1854.07 119.4L1822.89 101.4L1822.89 65.4zM1822.89 101.4L1854.07 119.4L1854.07 155.4L1822.89 173.4L1791.71 155.4L1791.71 119.4zM1822.89 209.4L1854.07 227.4L1854.07 263.4L1822.89 281.4L1791.71 263.4L1791.71 227.4zM1822.89 317.4L1854.07 335.4L1854.07 371.4L1822.89 389.4L1791.71 371.4L1791.71 335.4zM1854.07 479.4L1885.25 497.4L1885.25 533.4L1854.07 551.4L1822.89 533.4L1822.89 497.4zM1822.89 533.4L1854.07 551.4L1854.07 587.4L1822.89 605.4L1791.71 587.4L1791.71 551.4zM1885.25 -6.6L1916.43 11.4L1916.43 47.4L1885.25 65.4L1854.07 47.4L1854.07 11.4zM1916.43 47.4L1947.6 65.4L1947.6 101.4L1916.43 119.4L1885.25 101.4L1885.25 65.4zM1916.43 155.4L1947.6 173.4L1947.6 209.4L1916.43 227.4L1885.25 209.4L1885.25 173.4zM1916.43 263.4L1947.6 281.4L1947.6 317.4L1916.43 335.4L1885.25 317.4L1885.25 281.4zM1885.25 317.4L1916.43 335.4L1916.43 371.4L1885.25 389.4L1854.07 371.4L1854.07 335.4zM1916.43 371.4L1947.6 389.4L1947.6 425.4L1916.43 443.4L1885.25 425.4L1885.25 389.4zM1885.25 425.4L1916.43 443.4L1916.43 479.4L1885.25 497.4L1854.07 479.4L1854.07 443.4zM1916.43 479.4L1947.6 497.4L1947.6 533.4L1916.43 551.4L1885.25 533.4L1885.25 497.4zM1885.25 641.4L1916.43 659.4L1916.43 695.4L1885.25 713.4L1854.07 695.4L1854.07 659.4zM1916.43 695.4L1947.6 713.4L1947.6 749.4L1916.43 767.4L1885.25 749.4L1885.25 713.4zM1885.25 749.4L1916.43 767.4L1916.43 803.4L1885.25 821.4L1854.07 803.4L1854.07 767.4zM1916.43 803.4L1947.6 821.4L1947.6 857.4L1916.43 875.4L1885.25 857.4L1885.25 821.4zM1947.6 -6.6L1978.78 11.4L1978.78 47.4L1947.6 65.4L1916.43 47.4L1916.43 11.4zM1978.78 47.4L2009.96 65.4L2009.96 101.4L1978.78 119.4L1947.6 101.4L1947.6 65.4zM1978.78 155.4L2009.96 173.4L2009.96 209.4L1978.78 227.4L1947.6 209.4L1947.6 173.4zM1978.78 263.4L2009.96 281.4L2009.96 317.4L1978.78 335.4L1947.6 317.4L1947.6 281.4zM1947.6 425.4L1978.78 443.4L1978.78 479.4L1947.6 497.4L1916.43 479.4L1916.43 443.4zM1947.6 533.4L1978.78 551.4L1978.78 587.4L1947.6 605.4L1916.43 587.4L1916.43 551.4zM1947.6 641.4L1978.78 659.4L1978.78 695.4L1947.6 713.4L1916.43 695.4L1916.43 659.4zM1978.78 803.4L2009.96 821.4L2009.96 857.4L1978.78 875.4L1947.6 857.4L1947.6 821.4zM2041.14 47.4L2072.31 65.4L2072.31 101.4L2041.14 119.4L2009.96 101.4L2009.96 65.4zM2041.14 155.4L2072.31 173.4L2072.31 209.4L2041.14 227.4L2009.96 209.4L2009.96 173.4zM2009.96 209.4L2041.14 227.4L2041.14 263.4L2009.96 281.4L1978.78 263.4L1978.78 227.4zM2041.14 263.4L2072.31 281.4L2072.31 317.4L2041.14 335.4L2009.96 317.4L2009.96 281.4zM2041.14 371.4L2072.31 389.4L2072.31 425.4L2041.14 443.4L2009.96 425.4L2009.96 389.4zM2009.96 425.4L2041.14 443.4L2041.14 479.4L2009.96 497.4L1978.78 479.4L1978.78 443.4zM2041.14 479.4L2072.31 497.4L2072.31 533.4L2041.14 551.4L2009.96 533.4L2009.96 497.4zM2041.14 695.4L2072.31 713.4L2072.31 749.4L2041.14 767.4L2009.96 749.4L2009.96 713.4z" stroke="url(#SvgjsLinearGradient1452)" stroke-width="2"></path></g><defs><mask id="SvgjsMask1450"><rect width="2000" height="800" fill="#ffffff"></rect></mask><linearGradient x1="100%" y1="50%" x2="0%" y2="50%" gradientUnits="userSpaceOnUse" id="SvgjsLinearGradient1451"><stop stop-color="#0e2a47" offset="0"></stop><stop stop-color="#00459e" offset="1"></stop></linearGradient><linearGradient x1="300" y1="-300" x2="1700" y2="1100" gradientUnits="userSpaceOnUse" id="SvgjsLinearGradient1452"><stop stop-color="#0e2a47" offset="0"></stop><stop stop-color="#00459e" offset="1"></stop></linearGradient></defs></svg>